# xmcd
#
# Track frame offsets:
#  150
#  28733
#  48644
#  64414
#  75128
#
# Disc length: 1203 seconds
#
# Revision: 0
# Processed by: cddbd v1.5.1PL0 Copyright (c) Steve Scherf et al.
# Submitted via: Collectorz.com_Music_Collector 6.9
#
DISCID=3904b105
DTITLE=Rea, Chris - It's All Gone
DYEAR=1900
DGENRE=
TTITLE0=It's All Gone
TTITLE1=Crack That Mould
TTITLE2=Look Out For Me
TTITLE3=Bless Them All
TTITLE4=Let's Dance
EXTD=
EXTT0=
EXTT1=
EXTT2=
EXTT3=
EXTT4=
PLAYORDER=
